<mxfile host="app.diagrams.net" agent="Mozilla/5.0 (Windows NT 10.0; Win64; x64) AppleWebKit/537.36 (KHTML, like Gecko) Chrome/131.0.0.0 Safari/537.36" version="24.9.1">
  <diagram name="PÃ¡gina-1" id="tEqdCBtS6ALkKpA39o-G">
    <mxGraphModel dx="1151" dy="522" grid="1" gridSize="10" guides="1" tooltips="1" connect="1" arrows="1" fold="1" page="1" pageScale="1" pageWidth="827" pageHeight="1169" math="0" shadow="0">
      <root>
        <mxCell id="0" />
        <mxCell id="1" parent="0" />
        <mxCell id="8ADDDKyzatpP5SxbU38s-5" value="&lt;div style=&quot;font-size: 9px;&quot;&gt;&amp;lt;&amp;lt;interface&amp;gt;&amp;gt;&lt;/div&gt;Componente" style="swimlane;childLayout=stackLayout;horizontal=1;startSize=50;horizontalStack=0;rounded=1;fontSize=14;fontStyle=0;strokeWidth=2;resizeParent=0;resizeLast=1;shadow=0;dashed=0;align=center;arcSize=4;whiteSpace=wrap;html=1;" vertex="1" parent="1">
          <mxGeometry x="320" y="20" width="122.5" height="90" as="geometry" />
        </mxCell>
        <mxCell id="8ADDDKyzatpP5SxbU38s-6" value="+exibir ()" style="align=left;strokeColor=none;fillColor=none;spacingLeft=4;fontSize=12;verticalAlign=top;resizable=0;rotatable=0;part=1;html=1;" vertex="1" parent="8ADDDKyzatpP5SxbU38s-5">
          <mxGeometry y="50" width="122.5" height="40" as="geometry" />
        </mxCell>
        <mxCell id="8ADDDKyzatpP5SxbU38s-7" style="edgeStyle=orthogonalEdgeStyle;rounded=0;orthogonalLoop=1;jettySize=auto;html=1;entryX=0.5;entryY=1;entryDx=0;entryDy=0;dashed=1;endArrow=block;endFill=0;" edge="1" parent="1" source="8ADDDKyzatpP5SxbU38s-8" target="8ADDDKyzatpP5SxbU38s-6">
          <mxGeometry relative="1" as="geometry" />
        </mxCell>
        <mxCell id="8ADDDKyzatpP5SxbU38s-8" value="Prato" style="swimlane;childLayout=stackLayout;horizontal=1;startSize=50;horizontalStack=0;rounded=1;fontSize=14;fontStyle=0;strokeWidth=2;resizeParent=0;resizeLast=1;shadow=0;dashed=0;align=center;arcSize=4;whiteSpace=wrap;html=1;" vertex="1" parent="1">
          <mxGeometry x="140" y="230" width="200" height="140" as="geometry" />
        </mxCell>
        <mxCell id="8ADDDKyzatpP5SxbU38s-10" value="" style="endArrow=none;html=1;rounded=0;entryX=1;entryY=0.5;entryDx=0;entryDy=0;exitX=0;exitY=0.5;exitDx=0;exitDy=0;" edge="1" parent="8ADDDKyzatpP5SxbU38s-8" source="8ADDDKyzatpP5SxbU38s-9" target="8ADDDKyzatpP5SxbU38s-9">
          <mxGeometry width="50" height="50" relative="1" as="geometry">
            <mxPoint x="10" y="100" as="sourcePoint" />
            <mxPoint x="290" y="100" as="targetPoint" />
          </mxGeometry>
        </mxCell>
        <mxCell id="8ADDDKyzatpP5SxbU38s-9" value="-&amp;nbsp;&lt;span style=&quot;background-color: initial;&quot;&gt;private String nome&lt;/span&gt;&lt;div&gt;&lt;span style=&quot;background-color: initial;&quot;&gt;- private List&amp;lt;Componente&amp;gt;&amp;nbsp; itens&lt;/span&gt;&lt;/div&gt;&lt;div&gt;&lt;span style=&quot;background-color: initial;&quot;&gt;&lt;br&gt;&lt;/span&gt;&lt;/div&gt;&lt;div&gt;&lt;span style=&quot;background-color: initial;&quot;&gt;+&amp;nbsp;&lt;/span&gt;&lt;span style=&quot;background-color: initial;&quot;&gt;adicionar(Componente item)&lt;/span&gt;&lt;/div&gt;&lt;div&gt;&lt;span style=&quot;background-color: initial;&quot;&gt;+&lt;/span&gt;&lt;span style=&quot;background-color: initial;&quot;&gt;exibir()&lt;/span&gt;&lt;/div&gt;" style="align=left;strokeColor=none;fillColor=none;spacingLeft=4;fontSize=12;verticalAlign=top;resizable=0;rotatable=0;part=1;html=1;" vertex="1" parent="8ADDDKyzatpP5SxbU38s-8">
          <mxGeometry y="50" width="200" height="90" as="geometry" />
        </mxCell>
        <mxCell id="8ADDDKyzatpP5SxbU38s-11" value="Item" style="swimlane;childLayout=stackLayout;horizontal=1;startSize=50;horizontalStack=0;rounded=1;fontSize=14;fontStyle=0;strokeWidth=2;resizeParent=0;resizeLast=1;shadow=0;dashed=0;align=center;arcSize=4;whiteSpace=wrap;html=1;" vertex="1" parent="1">
          <mxGeometry x="430" y="230" width="200" height="111" as="geometry" />
        </mxCell>
        <mxCell id="8ADDDKyzatpP5SxbU38s-12" value="" style="endArrow=none;html=1;rounded=0;entryX=1;entryY=0.5;entryDx=0;entryDy=0;exitX=0;exitY=0.5;exitDx=0;exitDy=0;" edge="1" parent="8ADDDKyzatpP5SxbU38s-11" source="8ADDDKyzatpP5SxbU38s-13" target="8ADDDKyzatpP5SxbU38s-13">
          <mxGeometry width="50" height="50" relative="1" as="geometry">
            <mxPoint x="1" y="65.25" as="sourcePoint" />
            <mxPoint x="201" y="65.25" as="targetPoint" />
          </mxGeometry>
        </mxCell>
        <mxCell id="8ADDDKyzatpP5SxbU38s-13" value="-&amp;nbsp;&lt;span style=&quot;background-color: initial;&quot;&gt;private String nome&lt;/span&gt;&lt;div&gt;&lt;br&gt;&lt;/div&gt;&lt;div&gt;&lt;span style=&quot;background-color: initial;&quot;&gt;+&lt;/span&gt;&lt;span style=&quot;background-color: initial;&quot;&gt;exibir()&lt;/span&gt;&lt;/div&gt;" style="align=left;strokeColor=none;fillColor=none;spacingLeft=4;fontSize=12;verticalAlign=top;resizable=0;rotatable=0;part=1;html=1;" vertex="1" parent="8ADDDKyzatpP5SxbU38s-11">
          <mxGeometry y="50" width="200" height="61" as="geometry" />
        </mxCell>
        <mxCell id="8ADDDKyzatpP5SxbU38s-17" style="edgeStyle=orthogonalEdgeStyle;rounded=0;orthogonalLoop=1;jettySize=auto;html=1;entryX=0.5;entryY=1;entryDx=0;entryDy=0;dashed=1;endArrow=block;endFill=0;exitX=0.5;exitY=0;exitDx=0;exitDy=0;" edge="1" parent="1" source="8ADDDKyzatpP5SxbU38s-11" target="8ADDDKyzatpP5SxbU38s-6">
          <mxGeometry relative="1" as="geometry">
            <mxPoint x="250" y="240" as="sourcePoint" />
            <mxPoint x="391" y="120" as="targetPoint" />
          </mxGeometry>
        </mxCell>
        <mxCell id="8ADDDKyzatpP5SxbU38s-18" value="" style="edgeStyle=orthogonalEdgeStyle;rounded=0;orthogonalLoop=1;jettySize=auto;html=1;" edge="1" parent="1" source="8ADDDKyzatpP5SxbU38s-13" target="8ADDDKyzatpP5SxbU38s-9">
          <mxGeometry relative="1" as="geometry" />
        </mxCell>
      </root>
    </mxGraphModel>
  </diagram>
</mxfile>
